<?xml version="1.0" standalone="no"?>
<!DOCTYPE svg PUBLIC "-//W3C//DTD SVG 20010904//EN"
 "http://www.w3.org/TR/2001/REC-SVG-20010904/DTD/svg10.dtd">
<svg version="1.0" xmlns="http://www.w3.org/2000/svg"
 width="512.000000pt" height="512.000000pt" viewBox="0 0 512.000000 512.000000"
 preserveAspectRatio="xMidYMid meet">

<g transform="translate(0.000000,512.000000) scale(0.100000,-0.100000)"
fill="#000000" stroke="none">
<path d="M0 2648 c1 -2197 2 -2469 16 -2439 8 19 62 83 120 142 l106 107 -23
64 c-18 50 -22 84 -22 163 0 173 38 246 220 427 l118 118 348 -348 347 -348
-127 -125 c-132 -130 -179 -164 -273 -195 -81 -27 -225 -25 -309 5 l-64 22
-107 -105 c-58 -58 -122 -112 -141 -120 -30 -14 242 -15 2439 -16 l2472 0 -2
1878 c0 1032 -3 1861 -5 1842 -21 -206 -112 -441 -236 -615 l-29 -40 -891 890
-892 890 40 31 c149 114 380 207 580 233 43 5 -655 9 -1807 10 l-1878 1 0
-2472z m4189 648 l447 -446 -75 -51 c-171 -116 -432 -209 -583 -209 l-43 0
-674 674 -674 674 6 74 c15 164 94 380 198 536 l58 88 447 -447 c245 -246 647
-647 893 -893z m-538 -876 c-11 -8 -456 -391 -990 -850 -535 -459 -989 -843
-1009 -853 -54 -26 -139 -19 -189 16 -71 49 -731 720 -748 759 -20 49 -19 114
3 160 9 20 400 483 867 1027 l850 990 617 -617 c583 -582 617 -618 599 -632z"/>
<path d="M2475 2674 c-37 -19 -281 -259 -301 -296 -49 -93 25 -218 129 -218
63 0 98 24 240 169 144 146 157 169 143 245 -17 92 -127 144 -211 100z"/>
<path d="M4014 5109 c567 -73 1029 -538 1095 -1102 5 -46 9 143 10 521 l1 592
-587 -1 c-390 -1 -565 -4 -519 -10z"/>
<path d="M0 63 l0 -63 63 0 62 0 -42 21 c-29 14 -48 33 -62 62 l-21 42 0 -62z"/>
</g>
</svg>
